<?xml version="1.0" encoding="utf-8"?><svg xml:space="preserve" viewBox="0 0 100 100" y="0" x="0" xmlns="http://www.w3.org/2000/svg" id="Layer_1" version="1.1" width="200px" height="200px" xmlns:xlink="http://www.w3.org/1999/xlink" style="width:100%;height:100%;background-size:initial;background-repeat-y:initial;background-repeat-x:initial;background-position-y:initial;background-position-x:initial;background-origin:initial;background-image:initial;background-color:rgb(255, 255, 255);background-clip:initial;background-attachment:initial;animation-play-state:paused" ><g class="ldl-scale" style="transform-origin:50% 50%;transform:rotate(0deg) scale(0.8, 0.8);animation-play-state:paused" ><path fill="#e15c64" d="M92.5 49.1s-.1.9-.2 2.7c0 .4-.1.9-.1 1.5-.1.6-.2 1.3-.3 2-.1.7-.3 1.5-.4 2.3-.2.8-.4 1.6-.7 2.5-.4 1.8-1.2 3.6-2 5.6l-1.5 3c-.1.3-.3.5-.4.8-.2.3-.3.5-.5.8-.3.5-.6 1-1 1.6-2.7 4.2-6.5 8.4-11.5 11.9-.3.2-.6.4-.9.7-.3.2-.7.4-1 .6-.7.4-1.3.8-2 1.2-.7.4-1.4.7-2.1 1.1-.7.3-1.5.7-2.2 1-.8.3-1.6.5-2.3.8-.8.3-1.6.6-2.4.8-1.6.4-3.3.9-5 1-.9.1-1.7.2-2.6.3-.9 0-1.8.1-2.6.1h-2.7c-.8-.1-1.7-.1-2.5-.2H45c-.2 0-.5-.1-.7-.1l-1.4-.2c-.9-.2-1.9-.3-2.8-.5-1.8-.5-3.6-.9-5.3-1.7-7-2.6-13.5-7.4-18.3-13.5-2.4-3.1-4.3-6.5-5.8-10.2-1.7-3.8-2.6-7.6-3-11.5-.1-1-.1-2-.1-2.9v-1.7-1.3l.2-2.8.5-3 .3-1.5.3-1.3c.3-.9.5-1.9.8-2.8.3-.9.7-1.8 1-2.7l.3-.7.3-.6.6-1.3c.8-1.7 1.9-3.3 2.9-4.9.6-.7 1.2-1.5 1.7-2.2.3-.4.6-.8.9-1.1l1-1c2.5-2.8 5.4-5.1 8.5-7 .8-.5 1.6-.9 2.3-1.4.8-.4 1.6-.8 2.4-1.1l1.2-.6c.4-.2.8-.3 1.2-.5.8-.3 1.6-.6 2.5-.9 3.3-.9 6.7-1.6 9.9-1.6.8 0 1.6-.1 2.5-.1.8 0 1.6.1 2.3.1.4 0 .8 0 1.2.1.5.2.9.3 1.3.3.8.1 1.6.2 2.3.4.7.2 1.5.4 2.2.5.4.1.7.2 1.1.3.4.1.7.2 1.1.4.7.2 1.4.5 2.1.7.7.3 1.3.6 2 .8 5.2 2.3 9.4 5.5 12.5 8.8 3.2 3.3 5.3 6.7 6.8 9.6 1.4 2.9 2.3 5.4 2.7 7.1.4 1.7.7 2.6.7 2.6s-.3-.9-.7-2.6c-.5-1.7-1.4-4-3-6.9-1.6-2.8-3.8-6.1-7.1-9.2-3.2-3.1-7.4-6.1-12.5-8.1-.6-.2-1.3-.5-1.9-.7-.7-.2-1.3-.4-2-.6-.3-.1-.7-.2-1-.3-.3-.1-.7-.1-1.1-.2-.7-.1-1.4-.3-2.1-.4-.7-.1-1.5-.2-2.2-.3-.4 0-.7-.1-1.1-.1h-1.2c-.8 0-1.6 0-2.3-.1-.8.1-1.5.1-2.3.2-3.1.2-6.2.9-9.3 1.9-.8.3-1.5.6-2.3.9-.4.2-.8.3-1.1.5l-1.1.6c-.7.4-1.5.7-2.2 1.1-.7.4-1.4.9-2.1 1.3-2.8 1.9-5.4 4.1-7.6 6.8l-.9 1c-.3.3-.5.7-.8 1l-1.5 2.1c-.8 1.5-1.8 3-2.5 4.6l-.5 1.2-.3.6-.2.6-.9 2.5c-.3.8-.4 1.7-.6 2.6l-.3 1.3c-.1.4-.1.8-.2 1.3l-.5 2.2-.1 2.8v1.1c0 .1 0-.1 0 0v.2l.1 1.3c.1.9.1 1.8.2 2.6.5 3.5 1.5 6.9 2.8 10.1 1.5 3.1 3.3 6.1 5.5 8.8C24.7 77 30.4 81 36.6 83c1.5.6 3.1.9 4.6 1.3.8.2 1.5.2 2.2.3l1.1.2c.2 0 .4.1.6.1h.6c.8 0 1.7.1 2.5.1h1.1l1.1-.1c.7-.1 1.5-.1 2.2-.2.7-.1 1.5-.3 2.2-.4 1.5-.2 2.8-.7 4.2-1 .7-.2 1.3-.5 2-.7.6-.3 1.3-.5 1.9-.8l1.8-.9c.6-.3 1.2-.6 1.7-1 .6-.4 1.1-.7 1.7-1 .3-.2.6-.3.8-.5l.8-.6c4-3 7-6.7 9.1-10.1.3-.4.5-.9.8-1.3.1-.2.2-.4.4-.6.1-.2.2-.4.3-.7.4-.9.8-1.7 1.1-2.5.5-1.7 1.2-3.2 1.4-4.6.2-.7.3-1.4.5-2 .1-.6.1-1.2.2-1.7s.1-1 .2-1.4c0-.5 0-1 .1-1.4.1-1.7.1-2.7.1-2.7.1-2.4 2.1-4.3 4.5-4.2 2.4.1 4.3 2.1 4.2 4.5-.1-.1-.1-.1-.1 0z" id="XMLID_5_" style="fill:rgb(20, 40, 80);animation-play-state:paused" ></path>
<metadata xmlns:d="https://loading.io/stock/" style="animation-play-state:paused" ><d:name style="animation-play-state:paused" >comet</d:name>
<d:tags style="animation-play-state:paused" >meteor,tail,sperm,worm,ring,comet,spinner</d:tags>
<d:license style="animation-play-state:paused" >by</d:license>
<d:slug style="animation-play-state:paused" >kbmzeh</d:slug></metadata></g><!-- generated by https://loading.io/ --></svg>